<svg width="1709" height="360" viewBox="0 0 1709 360" fill="none" xmlns="http://www.w3.org/2000/svg">
<path d="M469.8 279V180V64.5H513.3V113.7C513.3 117.7 513.1 121.9 512.7 126.3C512.5 130.7 512 135.2 511.2 139.8C510.6 144.2 509.9 148.7 509.1 153.3C508.5 157.9 507.8 162.5 507 167.1H513.6C516.4 156.9 519.9 148.1 524.1 140.7C528.5 133.3 534.1 127.6 540.9 123.6C547.7 119.4 556.3 117.3 566.7 117.3C585.1 117.3 598.9 123.8 608.1 136.8C617.3 149.6 621.9 169.3 621.9 195.9V279H578.4V202.5C578.4 185.7 575.9 173.3 570.9 165.3C566.1 157.1 558.8 153 549 153C541 153 534.4 155.4 529.2 160.2C524 165 520.1 171.5 517.5 179.7C514.9 187.7 513.4 196.7 513 206.7V279H469.8ZM717.258 283.2C704.258 283.2 692.658 281.4 682.458 277.8C672.458 274.2 663.958 269 656.958 262.2C649.958 255.4 644.558 247 640.758 237C637.158 227 635.358 215.7 635.358 203.1C635.358 190.7 637.058 179.3 640.458 168.9C644.058 158.3 649.258 149.2 656.058 141.6C662.858 133.8 671.158 127.8 680.958 123.6C690.758 119.4 701.858 117.3 714.258 117.3C726.258 117.3 736.958 119.3 746.358 123.3C755.758 127.1 763.558 132.9 769.758 140.7C776.158 148.5 780.758 158.1 783.558 169.5C786.558 180.7 787.658 193.6 786.858 208.2L663.258 209.4V185.7L761.958 184.8L746.658 196.8C748.058 186.2 747.358 177.5 744.558 170.7C741.758 163.9 737.658 158.9 732.258 155.7C727.058 152.5 721.258 150.9 714.858 150.9C707.258 150.9 700.558 152.9 694.758 156.9C688.958 160.9 684.458 166.8 681.258 174.6C678.058 182.2 676.458 191.4 676.458 202.2C676.458 219.2 680.158 231.7 687.558 239.7C695.158 247.7 705.058 251.7 717.258 251.7C722.858 251.7 727.558 251 731.358 249.6C735.358 248 738.558 246 740.958 243.6C743.558 241.2 745.558 238.5 746.958 235.5C748.558 232.5 749.858 229.5 750.858 226.5L788.358 234.6C786.558 242 783.858 248.7 780.258 254.7C776.858 260.5 772.258 265.6 766.458 270C760.658 274.2 753.658 277.4 745.458 279.6C737.458 282 728.058 283.2 717.258 283.2ZM862.781 333.6C854.781 333.6 846.581 332.8 838.181 331.2C829.981 329.8 822.181 327.5 814.781 324.3C807.581 321.3 801.381 317.4 796.181 312.6L808.481 275.7C814.881 282.3 822.881 287.2 832.481 290.4C842.081 293.8 851.581 295.5 860.981 295.5C871.581 295.5 880.381 293.3 887.381 288.9C894.581 284.7 899.981 278.2 903.581 269.4C907.381 260.4 909.581 249.2 910.181 235.8L911.981 208.5H905.381C903.381 221.7 900.081 232.5 895.481 240.9C891.081 249.3 885.381 255.5 878.381 259.5C871.581 263.3 863.481 265.2 854.081 265.2C842.681 265.2 833.081 262.3 825.281 256.5C817.481 250.7 811.581 242 807.581 230.4C803.781 218.8 801.881 204.5 801.881 187.5V121.5H845.081V177C845.081 195.6 847.181 209 851.381 217.2C855.581 225.4 861.981 229.5 870.581 229.5C875.181 229.5 879.381 228.3 883.181 225.9C886.981 223.3 890.181 219.6 892.781 214.8C895.581 210 897.681 204.2 899.081 197.4C900.681 190.4 901.481 182.5 901.481 173.7V121.5H944.681V237.3C944.681 249.9 943.581 261.4 941.381 271.8C939.181 282 935.881 290.9 931.481 298.5C927.281 306.3 921.881 312.8 915.281 318C908.681 323.2 900.981 327.1 892.181 329.7C883.581 332.3 873.781 333.6 862.781 333.6ZM1005.45 283.2C996.65 283.2 988.85 281.5 982.05 278.1C975.25 274.5 969.95 269.4 966.15 262.8C962.35 256.2 960.45 248 960.45 238.2C960.45 229.6 962.05 222.4 965.25 216.6C968.65 210.8 973.55 206.1 979.95 202.5C986.35 198.9 994.25 195.9 1003.65 193.5C1013.05 191.1 1023.75 189 1035.75 187.2C1042.15 186.2 1047.35 185.3 1051.35 184.5C1055.55 183.5 1058.65 182 1060.65 180C1062.65 177.8 1063.65 174.7 1063.65 170.7C1063.65 165.1 1061.65 160.3 1057.65 156.3C1053.65 152.3 1047.35 150.3 1038.75 150.3C1032.95 150.3 1027.55 151.3 1022.55 153.3C1017.75 155.3 1013.55 158.3 1009.95 162.3C1006.55 166.3 1004.05 171.4 1002.45 177.6L964.35 165.9C966.75 157.7 970.15 150.6 974.55 144.6C979.15 138.6 984.65 133.6 991.05 129.6C997.45 125.4 1004.75 122.3 1012.95 120.3C1021.15 118.3 1030.05 117.3 1039.65 117.3C1055.05 117.3 1067.55 119.8 1077.15 124.8C1086.95 129.6 1094.25 137.2 1099.05 147.6C1103.85 157.8 1106.25 171 1106.25 187.2V214.2C1106.25 221.2 1106.35 228.3 1106.55 235.5C1106.95 242.7 1107.35 250 1107.75 257.4C1108.35 264.6 1108.95 271.8 1109.55 279H1071.45C1070.65 274 1069.85 268.3 1069.05 261.9C1068.45 255.3 1067.95 248.7 1067.55 242.1H1062.15C1059.35 249.7 1055.35 256.6 1050.15 262.8C1044.95 269 1038.55 274 1030.95 277.8C1023.55 281.4 1015.05 283.2 1005.45 283.2ZM1023.75 252C1027.55 252 1031.35 251.3 1035.15 249.9C1039.15 248.5 1042.95 246.6 1046.55 244.2C1050.35 241.6 1053.75 238.4 1056.75 234.6C1059.95 230.8 1062.55 226.5 1064.55 221.7L1063.95 196.5L1070.85 198C1067.25 200.6 1063.05 202.7 1058.25 204.3C1053.45 205.7 1048.45 206.8 1043.25 207.6C1038.25 208.4 1033.25 209.3 1028.25 210.3C1023.25 211.3 1018.75 212.6 1014.75 214.2C1010.95 215.8 1007.85 218 1005.45 220.8C1003.25 223.4 1002.15 227.1 1002.15 231.9C1002.15 238.1 1004.15 243 1008.15 246.6C1012.15 250.2 1017.35 252 1023.75 252ZM1129.04 329.4V201.6V121.5H1164.74L1165.04 165.3L1170.44 165.6C1172.24 155 1175.34 146.1 1179.74 138.9C1184.34 131.7 1190.24 126.3 1197.44 122.7C1204.64 119.1 1212.94 117.3 1222.34 117.3C1236.34 117.3 1248.34 120.8 1258.34 127.8C1268.34 134.6 1275.94 144.3 1281.14 156.9C1286.54 169.3 1289.24 184 1289.24 201C1289.24 216.8 1286.84 230.9 1282.04 243.3C1277.24 255.5 1270.04 265.2 1260.44 272.4C1251.04 279.6 1239.24 283.2 1225.04 283.2C1215.04 283.2 1206.54 281.3 1199.54 277.5C1192.74 273.7 1187.04 268.4 1182.44 261.6C1178.04 254.6 1174.34 246.3 1171.34 236.7H1165.64C1166.84 242.1 1167.94 247.6 1168.94 253.2C1169.94 258.8 1170.74 264.3 1171.34 269.7C1171.94 274.9 1172.24 280 1172.24 285V329.4H1129.04ZM1210.04 248.7C1217.24 248.7 1223.34 246.7 1228.34 242.7C1233.34 238.7 1237.14 233.1 1239.74 225.9C1242.54 218.7 1243.94 210.5 1243.94 201.3C1243.94 191.3 1242.54 182.8 1239.74 175.8C1236.94 168.6 1232.94 163 1227.74 159C1222.54 155 1216.34 153 1209.14 153C1202.74 153 1197.24 154.4 1192.64 157.2C1188.04 160 1184.14 163.7 1180.94 168.3C1177.94 172.9 1175.74 177.9 1174.34 183.3C1172.94 188.5 1172.24 193.5 1172.24 198.3V204C1172.24 207.8 1172.74 211.8 1173.74 216C1174.74 220 1176.34 224 1178.54 228C1180.74 231.8 1183.34 235.3 1186.34 238.5C1189.34 241.5 1192.84 244 1196.84 246C1200.84 247.8 1205.24 248.7 1210.04 248.7ZM1305.35 329.4V201.6V121.5H1341.05L1341.35 165.3L1346.75 165.6C1348.55 155 1351.65 146.1 1356.05 138.9C1360.65 131.7 1366.55 126.3 1373.75 122.7C1380.95 119.1 1389.25 117.3 1398.65 117.3C1412.65 117.3 1424.65 120.8 1434.65 127.8C1444.65 134.6 1452.25 144.3 1457.45 156.9C1462.85 169.3 1465.55 184 1465.55 201C1465.55 216.8 1463.15 230.9 1458.35 243.3C1453.55 255.5 1446.35 265.2 1436.75 272.4C1427.35 279.6 1415.55 283.2 1401.35 283.2C1391.35 283.2 1382.85 281.3 1375.85 277.5C1369.05 273.7 1363.35 268.4 1358.75 261.6C1354.35 254.6 1350.65 246.3 1347.65 236.7H1341.95C1343.15 242.1 1344.25 247.6 1345.25 253.2C1346.25 258.8 1347.05 264.3 1347.65 269.7C1348.25 274.9 1348.55 280 1348.55 285V329.4H1305.35ZM1386.35 248.7C1393.55 248.7 1399.65 246.7 1404.65 242.7C1409.65 238.7 1413.45 233.1 1416.05 225.9C1418.85 218.7 1420.25 210.5 1420.25 201.3C1420.25 191.3 1418.85 182.8 1416.05 175.8C1413.25 168.6 1409.25 163 1404.05 159C1398.85 155 1392.65 153 1385.45 153C1379.05 153 1373.55 154.4 1368.95 157.2C1364.35 160 1360.45 163.7 1357.25 168.3C1354.25 172.9 1352.05 177.9 1350.65 183.3C1349.25 188.5 1348.55 193.5 1348.55 198.3V204C1348.55 207.8 1349.05 211.8 1350.05 216C1351.05 220 1352.65 224 1354.85 228C1357.05 231.8 1359.65 235.3 1362.65 238.5C1365.65 241.5 1369.15 244 1373.15 246C1377.15 247.8 1381.55 248.7 1386.35 248.7ZM1481.66 279V64.5H1524.26V279H1481.66ZM1607.8 333.6C1599.8 333.6 1591.6 332.8 1583.2 331.2C1575 329.8 1567.2 327.5 1559.8 324.3C1552.6 321.3 1546.4 317.4 1541.2 312.6L1553.5 275.7C1559.9 282.3 1567.9 287.2 1577.5 290.4C1587.1 293.8 1596.6 295.5 1606 295.5C1616.6 295.5 1625.4 293.3 1632.4 288.9C1639.6 284.7 1645 278.2 1648.6 269.4C1652.4 260.4 1654.6 249.2 1655.2 235.8L1657 208.5H1650.4C1648.4 221.7 1645.1 232.5 1640.5 240.9C1636.1 249.3 1630.4 255.5 1623.4 259.5C1616.6 263.3 1608.5 265.2 1599.1 265.2C1587.7 265.2 1578.1 262.3 1570.3 256.5C1562.5 250.7 1556.6 242 1552.6 230.4C1548.8 218.8 1546.9 204.5 1546.9 187.5V121.5H1590.1V177C1590.1 195.6 1592.2 209 1596.4 217.2C1600.6 225.4 1607 229.5 1615.6 229.5C1620.2 229.5 1624.4 228.3 1628.2 225.9C1632 223.3 1635.2 219.6 1637.8 214.8C1640.6 210 1642.7 204.2 1644.1 197.4C1645.7 190.4 1646.5 182.5 1646.5 173.7V121.5H1689.7V237.3C1689.7 249.9 1688.6 261.4 1686.4 271.8C1684.2 282 1680.9 290.9 1676.5 298.5C1672.3 306.3 1666.9 312.8 1660.3 318C1653.7 323.2 1646 327.1 1637.2 329.7C1628.6 332.3 1618.8 333.6 1607.8 333.6Z" fill="white"/>
<path d="M300 180C300 315 285 330 150 330C15 330 0 315 0 180C0 45 15 30 150 30C285 30 300 45 300 180Z" fill="#F2F966"/>
<path d="M173.253 103.444C154.875 129.393 139.063 156.213 124.442 183.762C126.814 180.789 129.077 177.723 131.575 174.861C138.641 166.77 146.821 160.124 157.251 156.934C168.558 153.48 179.229 154.698 188.444 162.683C193.271 166.868 196.049 172.308 197.05 178.677C198.626 188.674 195.001 197.192 189.738 205.288C183.625 214.686 177.438 224.041 171.484 233.539C169.902 236.061 168.894 238.984 167.911 241.823C167.127 244.083 168.846 245.908 171.032 244.976C173.343 243.993 175.685 242.562 177.367 240.735C182.92 234.704 188.117 228.343 193.58 222.219C198.032 217.237 203.06 212.925 208.901 209.553C218.642 203.931 230.429 204.615 238.778 211.483C247.263 218.457 249.71 231.137 244.295 240.738C240.392 247.65 235.047 253.083 227.231 255.385C219.634 257.621 212.743 255.822 206.756 250.769C201.256 246.124 198.357 240.151 199.02 232.892C199.273 230.109 200.512 227.416 201.238 224.667C201.43 223.928 201.378 223.12 201.438 222.346C200.67 222.65 199.659 222.742 199.173 223.297C196.746 226.075 194.531 229.043 192.099 231.82C186.749 237.928 181.753 244.429 175.822 249.921C164.991 259.947 148.07 259.095 137.363 248.812C130.59 242.309 127.529 234.474 128.313 225.177C128.76 219.912 131.112 215.314 133.822 210.862C140.119 200.517 146.457 190.189 152.527 179.712C154.157 176.902 155.266 173.652 155.944 170.462C156.771 166.58 154.064 164.555 150.338 165.923C145.234 167.792 141.577 171.647 137.944 175.418C125.929 187.879 116.162 202.075 106.901 216.6C100.271 227.001 94.1209 237.704 87.7308 248.257C86.7775 249.831 85.8084 251.427 84.6281 252.83C81.1053 257.018 77.1392 257.792 70.7963 254.943C60.2674 250.215 54.4439 241.839 53.1622 230.421C52.2277 222.095 55.4661 214.752 59.4274 207.789C66.3689 195.595 73.504 183.509 80.7135 171.47C86.4765 161.843 92.1907 152.165 98.4382 142.857C105.536 132.29 114.208 123.111 124.973 116.082C134.611 109.792 145.213 106.088 156.546 104.461C161.149 103.798 165.809 103.532 170.446 103.136C171.125 103.075 171.825 103.276 173.253 103.444Z" fill="#0C0C0C"/>
</svg>
